<svg width="185" height="67" viewBox="0 0 185 67" fill="none" xmlns="http://www.w3.org/2000/svg">
<rect width="185" height="67" rx="9.10004" fill="url(#paint0_linear_33_13)"/>
<path d="M63.3945 50.1537C63.3945 50.1537 66.1132 45.4675 69.2366 47.0811C72.3601 48.6946 72.7649 50.1537 75.5413 49.1856C78.3177 48.2174 78.4915 40.0351 80.9208 41.6486C83.3502 43.2622 89.3467 46.4893 94.5524 41.6486" stroke="url(#paint1_linear_33_13)" stroke-width="1.82001" stroke-linecap="round" stroke-linejoin="round"/>
<path opacity="0.5" d="M140.667 22.7391V20.9154H142.273C142.425 20.9154 142.571 20.93 142.709 20.9591C142.855 20.9809 142.982 21.0246 143.092 21.0901C143.201 21.1557 143.288 21.2467 143.354 21.3631C143.419 21.4796 143.452 21.6289 143.452 21.8109C143.452 22.1385 143.354 22.3751 143.157 22.5207C142.961 22.6663 142.709 22.7391 142.404 22.7391H140.667ZM138.953 19.5832V27.3801H142.731C143.081 27.3801 143.419 27.3364 143.747 27.2491C144.082 27.1617 144.377 27.027 144.631 26.845C144.893 26.663 145.101 26.4301 145.254 26.1461C145.407 25.8549 145.483 25.5128 145.483 25.1196C145.483 24.6319 145.363 24.2169 145.123 23.8748C144.89 23.5253 144.533 23.2814 144.053 23.1431C144.402 22.9757 144.664 22.7609 144.839 22.4988C145.021 22.2368 145.112 21.9092 145.112 21.516C145.112 21.152 145.05 20.8463 144.926 20.5987C144.81 20.3512 144.642 20.1547 144.424 20.0091C144.205 19.8562 143.943 19.747 143.638 19.6815C143.332 19.6159 142.993 19.5832 142.622 19.5832H138.953ZM140.667 26.0479V23.9075H142.535C142.906 23.9075 143.204 23.9949 143.43 24.1696C143.656 24.337 143.769 24.621 143.769 25.0214C143.769 25.2252 143.732 25.3926 143.659 25.5237C143.594 25.6547 143.503 25.7603 143.386 25.8404C143.27 25.9132 143.135 25.9678 142.982 26.0042C142.83 26.0333 142.669 26.0479 142.502 26.0479H140.667ZM148.367 21.0246V27.3801H150.082V21.0246H152.418V19.5832H146.03V21.0246H148.367ZM158.515 22.204H160.175C160.124 21.7526 160.001 21.3522 159.804 21.0028C159.607 20.6533 159.356 20.3621 159.05 20.1292C158.752 19.8889 158.41 19.7069 158.024 19.5832C157.645 19.4594 157.241 19.3975 156.812 19.3975C156.215 19.3975 155.676 19.5031 155.196 19.7142C154.722 19.9253 154.322 20.2165 153.994 20.5878C153.667 20.9591 153.416 21.3959 153.241 21.8982C153.066 22.3933 152.979 22.932 152.979 23.5144C152.979 24.0822 153.066 24.6137 153.241 25.1087C153.416 25.5965 153.667 26.0224 153.994 26.3864C154.322 26.7504 154.722 27.0379 155.196 27.2491C155.676 27.4529 156.215 27.5548 156.812 27.5548C157.292 27.5548 157.733 27.482 158.133 27.3364C158.534 27.1908 158.883 26.9797 159.182 26.7031C159.48 26.4264 159.72 26.0915 159.902 25.6984C160.084 25.3053 160.197 24.8648 160.241 24.3771H158.581C158.515 24.9012 158.333 25.3235 158.035 25.6438C157.744 25.9641 157.336 26.1243 156.812 26.1243C156.426 26.1243 156.098 26.0515 155.829 25.9059C155.56 25.753 155.341 25.5528 155.174 25.3053C155.006 25.0578 154.883 24.7811 154.803 24.4754C154.73 24.1623 154.693 23.842 154.693 23.5144C154.693 23.1722 154.73 22.841 154.803 22.5207C154.883 22.2004 155.006 21.9164 155.174 21.6689C155.341 21.4141 155.56 21.2139 155.829 21.0683C156.098 20.9154 156.426 20.839 156.812 20.839C157.023 20.839 157.223 20.8754 157.412 20.9482C157.609 21.0137 157.784 21.1083 157.937 21.2321C158.09 21.3559 158.217 21.5015 158.319 21.6689C158.421 21.8291 158.486 22.0074 158.515 22.204Z" fill="white"/>
<path d="M78.165 17.7956C78.5363 17.7956 78.8973 17.7646 79.2479 17.7027C79.5986 17.6409 79.9131 17.5377 80.1916 17.3933C80.4804 17.2489 80.7227 17.0633 80.9187 16.8364C81.125 16.6095 81.259 16.3311 81.3209 16.001H82.7596V26.8301H80.8259V19.1879H78.165V17.7956ZM87.0087 24.7416H89.1591V26.8301H87.0087V24.7416ZM92.7376 24.0919C92.7788 24.5354 92.9336 24.8963 93.2017 25.1748C93.4802 25.4429 93.8514 25.577 94.3155 25.577C94.79 25.577 95.1664 25.4532 95.4449 25.2057C95.7336 24.9479 95.9554 24.6333 96.1101 24.262C96.2648 23.8805 96.3679 23.4782 96.4195 23.0554C96.4814 22.6222 96.5278 22.2252 96.5587 21.8642L96.5278 21.8332C96.2906 22.2561 95.9657 22.581 95.5531 22.8079C95.1406 23.0244 94.6868 23.1327 94.1918 23.1327C93.6761 23.1327 93.2069 23.0451 92.784 22.8697C92.3715 22.6944 92.0157 22.452 91.7166 22.1426C91.4175 21.8229 91.1854 21.4413 91.0204 20.9979C90.8554 20.5441 90.7729 20.0387 90.7729 19.4818C90.7729 18.9558 90.8554 18.4711 91.0204 18.0276C91.1854 17.5738 91.4278 17.1819 91.7475 16.8519C92.0672 16.5115 92.4591 16.2485 92.9232 16.0629C93.3873 15.8773 93.9133 15.7844 94.5012 15.7844C95.2644 15.7844 95.8935 15.934 96.3885 16.2331C96.8836 16.5219 97.2703 16.9241 97.5488 17.4397C97.8376 17.9451 98.0387 18.5433 98.1521 19.2343C98.2656 19.9253 98.3223 20.6627 98.3223 21.4465C98.3223 22.0962 98.2501 22.7511 98.1057 23.4112C97.9716 24.0712 97.7447 24.6746 97.425 25.2212C97.1053 25.7575 96.6825 26.1958 96.1565 26.5361C95.6408 26.8765 95.0014 27.0467 94.2382 27.0467C93.805 27.0467 93.3977 26.9745 93.0161 26.8301C92.6345 26.6857 92.2941 26.4846 91.995 26.2267C91.7063 25.9689 91.469 25.6595 91.2834 25.2985C91.0978 24.9376 90.9946 24.5354 90.974 24.0919H92.7376ZM94.4238 17.2541C94.1041 17.2541 93.8257 17.316 93.5884 17.4397C93.3512 17.5532 93.1553 17.713 93.0006 17.9193C92.8459 18.1256 92.7273 18.3628 92.6448 18.6309C92.5726 18.8991 92.5365 19.1775 92.5365 19.4663C92.5365 19.7654 92.5726 20.0542 92.6448 20.3326C92.7273 20.6008 92.8459 20.838 93.0006 21.0443C93.1553 21.2505 93.3512 21.4207 93.5884 21.5548C93.8257 21.6785 94.1041 21.7404 94.4238 21.7404C94.7539 21.7404 95.0426 21.6785 95.2902 21.5548C95.5377 21.431 95.7388 21.266 95.8935 21.0597C96.0585 20.8432 96.1823 20.6008 96.2648 20.3326C96.3473 20.0542 96.3885 19.7654 96.3885 19.4663C96.3885 19.1775 96.3473 18.8991 96.2648 18.6309C96.1823 18.3628 96.0585 18.1307 95.8935 17.9348C95.7388 17.7285 95.5377 17.5635 95.2902 17.4397C95.0426 17.316 94.7539 17.2541 94.4238 17.2541ZM104.954 18.7392C104.913 18.2958 104.753 17.9399 104.474 17.6718C104.206 17.3933 103.84 17.2541 103.376 17.2541C103.056 17.2541 102.778 17.316 102.54 17.4397C102.314 17.5532 102.118 17.7079 101.953 17.9038C101.798 18.0998 101.669 18.3267 101.566 18.5845C101.473 18.8321 101.396 19.095 101.334 19.3735C101.272 19.652 101.225 19.9304 101.195 20.2089C101.174 20.477 101.153 20.7297 101.133 20.9669L101.164 20.9979C101.401 20.5647 101.726 20.245 102.138 20.0387C102.561 19.8221 103.015 19.7138 103.5 19.7138C104.036 19.7138 104.515 19.8067 104.938 19.9923C105.361 20.1779 105.717 20.4358 106.006 20.7658C106.305 21.0855 106.532 21.4671 106.686 21.9106C106.841 22.3541 106.918 22.8336 106.918 23.3493C106.918 23.8753 106.831 24.3652 106.655 24.819C106.49 25.2624 106.248 25.6544 105.928 25.9947C105.609 26.3247 105.227 26.5826 104.784 26.7682C104.34 26.9538 103.85 27.0467 103.314 27.0467C102.52 27.0467 101.865 26.9023 101.349 26.6135C100.844 26.3144 100.442 25.9122 100.143 25.4068C99.8538 24.8912 99.6527 24.293 99.5392 23.6123C99.4258 22.9213 99.3691 22.1787 99.3691 21.3846C99.3691 20.7349 99.4361 20.08 99.5702 19.4199C99.7146 18.7599 99.9466 18.1617 100.266 17.6254C100.586 17.0788 101.004 16.6353 101.519 16.295C102.045 15.9546 102.69 15.7844 103.453 15.7844C103.886 15.7844 104.294 15.8566 104.675 16.001C105.057 16.1454 105.392 16.3465 105.681 16.6044C105.98 16.8622 106.222 17.1716 106.408 17.5326C106.594 17.8935 106.697 18.2958 106.717 18.7392H104.954ZM103.252 25.577C103.572 25.577 103.85 25.5151 104.087 25.3914C104.325 25.2573 104.521 25.0871 104.675 24.8808C104.84 24.6746 104.959 24.4374 105.031 24.1692C105.114 23.8908 105.155 23.6071 105.155 23.3184C105.155 23.0296 105.114 22.7511 105.031 22.483C104.959 22.2148 104.84 21.9828 104.675 21.7868C104.521 21.5806 104.325 21.4156 104.087 21.2918C103.85 21.168 103.572 21.1062 103.252 21.1062C102.932 21.1062 102.649 21.168 102.401 21.2918C102.164 21.4052 101.963 21.5651 101.798 21.7714C101.633 21.9673 101.509 22.1994 101.427 22.4675C101.344 22.7357 101.303 23.0193 101.303 23.3184C101.303 23.6175 101.344 23.9011 101.427 24.1692C101.509 24.4374 101.633 24.6797 101.798 24.8963C101.963 25.1026 102.164 25.2676 102.401 25.3914C102.649 25.5151 102.932 25.577 103.252 25.577ZM107.981 16.001H115.391V17.4707C114.824 18.1101 114.308 18.7753 113.844 19.4663C113.38 20.147 112.972 20.8741 112.622 21.6476C112.281 22.4108 112.003 23.2204 111.786 24.0764C111.57 24.9324 111.425 25.8503 111.353 26.8301H109.419C109.481 25.9741 109.626 25.1284 109.853 24.293C110.09 23.4576 110.389 22.648 110.75 21.8642C111.121 21.0804 111.549 20.3275 112.034 19.6056C112.519 18.8836 113.039 18.2081 113.596 17.579H107.981V16.001ZM120.336 17.1768C119.862 17.1768 119.459 17.3211 119.129 17.6099C118.799 17.8884 118.634 18.2958 118.634 18.8321C118.634 19.3477 118.794 19.7448 119.114 20.0232C119.434 20.2914 119.841 20.4255 120.336 20.4255C120.831 20.4255 121.239 20.2914 121.558 20.0232C121.878 19.7448 122.038 19.3477 122.038 18.8321C122.038 18.2958 121.873 17.8884 121.543 17.6099C121.213 17.3211 120.811 17.1768 120.336 17.1768ZM120.336 27.0467C119.789 27.0467 119.279 26.9693 118.805 26.8146C118.34 26.6599 117.938 26.4382 117.598 26.1494C117.258 25.8503 116.989 25.4893 116.793 25.0665C116.608 24.6436 116.515 24.1692 116.515 23.6432C116.515 22.9626 116.69 22.3902 117.041 21.9261C117.402 21.462 117.887 21.1526 118.495 20.9979V20.9669C118 20.7813 117.619 20.4977 117.35 20.1161C117.093 19.7242 116.964 19.2652 116.964 18.7392C116.964 17.811 117.252 17.0891 117.83 16.5734C118.418 16.0474 119.253 15.7844 120.336 15.7844C121.419 15.7844 122.249 16.0474 122.827 16.5734C123.415 17.0891 123.709 17.811 123.709 18.7392C123.709 19.2652 123.574 19.7242 123.306 20.1161C123.049 20.4977 122.672 20.7813 122.177 20.9669V20.9979C122.786 21.1526 123.265 21.462 123.616 21.9261C123.977 22.3902 124.157 22.9626 124.157 23.6432C124.157 24.1692 124.059 24.6436 123.863 25.0665C123.678 25.4893 123.415 25.8503 123.074 26.1494C122.734 26.4382 122.327 26.6599 121.852 26.8146C121.388 26.9693 120.883 27.0467 120.336 27.0467ZM120.336 25.6544C120.924 25.6544 121.414 25.479 121.806 25.1284C122.198 24.7777 122.394 24.2827 122.394 23.6432C122.394 23.0451 122.198 22.581 121.806 22.2509C121.414 21.9106 120.924 21.7404 120.336 21.7404C119.748 21.7404 119.258 21.9106 118.866 22.2509C118.475 22.581 118.279 23.0451 118.279 23.6432C118.279 24.2827 118.475 24.7777 118.866 25.1284C119.258 25.479 119.748 25.6544 120.336 25.6544Z" fill="white"/>
<path d="M129.053 47.1672V44.975H128.373V47.1672H126.19V47.8478H128.373V50.04H129.053V47.8478H131.236V47.1672H129.053ZM135.276 50.04V42.9429H134.625C134.578 43.2098 134.492 43.4301 134.365 43.6036C134.238 43.7771 134.081 43.9139 133.894 44.014C133.714 44.1141 133.511 44.1842 133.284 44.2242C133.057 44.2576 132.823 44.2743 132.583 44.2743V44.9549H134.425V50.04H135.276ZM137.715 45.4554H138.566C138.559 45.2419 138.579 45.0317 138.626 44.8248C138.679 44.6113 138.762 44.4211 138.876 44.2542C138.989 44.0874 139.133 43.9539 139.306 43.8538C139.487 43.7471 139.7 43.6937 139.947 43.6937C140.134 43.6937 140.311 43.7237 140.478 43.7838C140.644 43.8438 140.788 43.9306 140.908 44.044C141.035 44.1575 141.135 44.2943 141.208 44.4544C141.282 44.6079 141.318 44.7814 141.318 44.975C141.318 45.2219 141.278 45.4388 141.198 45.6256C141.125 45.8125 141.011 45.986 140.858 46.1461C140.711 46.3063 140.524 46.4665 140.297 46.6266C140.07 46.7801 139.807 46.9503 139.507 47.1371C139.26 47.2839 139.023 47.4408 138.796 47.6076C138.569 47.7744 138.365 47.968 138.185 48.1882C138.005 48.4084 137.855 48.6687 137.735 48.969C137.621 49.2626 137.548 49.6196 137.515 50.04H142.149V49.2893H138.506C138.546 49.0691 138.629 48.8755 138.756 48.7087C138.889 48.5352 139.046 48.375 139.226 48.2282C139.413 48.0814 139.617 47.9446 139.837 47.8178C140.057 47.6843 140.277 47.5509 140.498 47.4174C140.718 47.2773 140.931 47.1305 141.138 46.977C141.345 46.8235 141.529 46.6533 141.689 46.4665C141.849 46.2729 141.976 46.056 142.069 45.8158C142.169 45.5756 142.219 45.2986 142.219 44.985C142.219 44.6513 142.159 44.3577 142.039 44.1041C141.926 43.8505 141.769 43.6403 141.569 43.4734C141.368 43.2999 141.132 43.1698 140.858 43.0831C140.591 42.9896 140.304 42.9429 139.997 42.9429C139.623 42.9429 139.29 43.0063 138.996 43.1331C138.702 43.2599 138.455 43.4367 138.255 43.6636C138.062 43.8839 137.918 44.1475 137.825 44.4544C137.731 44.7614 137.695 45.0951 137.715 45.4554ZM143.667 48.9289V50.04H144.258C144.265 50.1201 144.258 50.2069 144.238 50.3003C144.225 50.3937 144.195 50.4838 144.148 50.5706C144.101 50.664 144.038 50.7474 143.958 50.8208C143.884 50.9009 143.791 50.961 143.677 51.001V51.5015C144.064 51.3881 144.345 51.1945 144.518 50.9209C144.692 50.6473 144.778 50.3203 144.778 49.9399V48.9289H143.667ZM150.327 43.8138V43.063H146.824L146.163 46.7467L146.894 46.7868C147.061 46.5866 147.251 46.4264 147.464 46.3063C147.685 46.1795 147.935 46.1161 148.215 46.1161C148.455 46.1161 148.672 46.1561 148.866 46.2362C149.066 46.3163 149.236 46.4297 149.376 46.5766C149.516 46.7167 149.623 46.8869 149.697 47.0871C149.777 47.2806 149.817 47.4942 149.817 47.7277C149.817 48.008 149.777 48.2549 149.697 48.4685C149.617 48.6753 149.506 48.8488 149.366 48.989C149.233 49.1291 149.073 49.2359 148.886 49.3093C148.706 49.376 148.515 49.4094 148.315 49.4094C148.102 49.4094 147.905 49.3794 147.725 49.3193C147.551 49.2526 147.398 49.1625 147.264 49.049C147.137 48.9289 147.034 48.7921 146.954 48.6386C146.88 48.4785 146.837 48.3083 146.824 48.1281H145.973C145.98 48.4484 146.043 48.7354 146.163 48.989C146.283 49.2426 146.447 49.4561 146.654 49.6296C146.86 49.7965 147.097 49.9266 147.364 50.02C147.638 50.1068 147.928 50.1501 148.235 50.1501C148.649 50.1501 149.009 50.0868 149.316 49.96C149.63 49.8265 149.89 49.6496 150.097 49.4294C150.304 49.2092 150.457 48.959 150.557 48.6787C150.664 48.3917 150.718 48.0981 150.718 47.7978C150.718 47.3907 150.658 47.037 150.537 46.7367C150.417 46.4297 150.254 46.1762 150.047 45.976C149.84 45.7691 149.597 45.6156 149.316 45.5155C149.036 45.4154 148.739 45.3653 148.425 45.3653C148.185 45.3653 147.942 45.4087 147.695 45.4955C147.454 45.5756 147.257 45.7024 147.104 45.8759L147.084 45.8558L147.464 43.8138H150.327ZM152.856 44.9549C152.856 44.8014 152.866 44.6413 152.886 44.4745C152.906 44.3009 152.947 44.1441 153.007 44.004C153.073 43.8572 153.163 43.737 153.277 43.6436C153.39 43.5435 153.54 43.4935 153.727 43.4935C153.921 43.4935 154.071 43.5435 154.178 43.6436C154.291 43.737 154.378 43.8572 154.438 44.004C154.498 44.1441 154.535 44.3009 154.548 44.4745C154.568 44.6413 154.578 44.7981 154.578 44.9449C154.578 45.0984 154.568 45.2619 154.548 45.4354C154.528 45.6089 154.485 45.7691 154.418 45.9159C154.358 46.056 154.271 46.1728 154.158 46.2663C154.044 46.3597 153.891 46.4064 153.697 46.4064C153.51 46.4064 153.36 46.3597 153.247 46.2663C153.14 46.1662 153.057 46.046 152.997 45.9059C152.937 45.7591 152.896 45.6023 152.876 45.4354C152.863 45.2619 152.856 45.1017 152.856 44.9549ZM152.106 44.975C152.106 45.2486 152.132 45.5055 152.186 45.7457C152.246 45.986 152.339 46.1962 152.466 46.3764C152.593 46.5565 152.76 46.7 152.967 46.8068C153.173 46.9069 153.427 46.9569 153.727 46.9569C154.021 46.9569 154.268 46.9002 154.468 46.7868C154.668 46.6733 154.832 46.5265 154.959 46.3463C155.092 46.1595 155.185 45.9459 155.239 45.7057C155.299 45.4588 155.329 45.2052 155.329 44.9449C155.329 44.6713 155.302 44.4144 155.249 44.1742C155.202 43.9272 155.115 43.7137 154.989 43.5335C154.868 43.3533 154.705 43.2098 154.498 43.1031C154.298 42.9963 154.041 42.9429 153.727 42.9429C153.42 42.9429 153.163 42.9996 152.957 43.1131C152.75 43.2199 152.583 43.3667 152.456 43.5535C152.329 43.7404 152.239 43.9573 152.186 44.2042C152.132 44.4444 152.106 44.7013 152.106 44.975ZM157.801 48.1582C157.801 48.0047 157.811 47.8445 157.831 47.6777C157.851 47.5042 157.891 47.3473 157.952 47.2072C158.018 47.0604 158.108 46.9403 158.222 46.8468C158.335 46.7467 158.485 46.6967 158.672 46.6967C158.866 46.6967 159.016 46.7467 159.123 46.8468C159.236 46.9403 159.323 47.0604 159.383 47.2072C159.443 47.3473 159.48 47.5042 159.493 47.6777C159.513 47.8445 159.523 48.0013 159.523 48.1481C159.523 48.3016 159.513 48.4651 159.493 48.6386C159.473 48.8121 159.43 48.9723 159.363 49.1191C159.303 49.2593 159.216 49.376 159.103 49.4695C158.989 49.5629 158.836 49.6096 158.642 49.6096C158.455 49.6096 158.305 49.5629 158.192 49.4695C158.085 49.3694 158.002 49.2492 157.942 49.1091C157.881 48.9623 157.841 48.8055 157.821 48.6386C157.808 48.4651 157.801 48.305 157.801 48.1582ZM157.051 48.1782C157.051 48.4518 157.077 48.7087 157.131 48.9489C157.191 49.1892 157.284 49.3994 157.411 49.5796C157.538 49.7531 157.705 49.8932 157.912 50C158.118 50.1001 158.372 50.1501 158.672 50.1501C158.966 50.1501 159.213 50.0968 159.413 49.99C159.613 49.8765 159.777 49.7297 159.904 49.5495C160.037 49.3627 160.13 49.1491 160.184 48.9089C160.244 48.662 160.274 48.4084 160.274 48.1481C160.274 47.8745 160.247 47.6176 160.194 47.3774C160.147 47.1305 160.06 46.9169 159.934 46.7367C159.813 46.5565 159.65 46.4131 159.443 46.3063C159.243 46.1995 158.986 46.1461 158.672 46.1461C158.365 46.1461 158.108 46.2029 157.901 46.3163C157.695 46.4231 157.528 46.5699 157.401 46.7567C157.274 46.9436 157.184 47.1605 157.131 47.4074C157.077 47.6476 157.051 47.9046 157.051 48.1782ZM158.452 42.8128L153.067 50.2503H153.928L159.303 42.8128H158.452Z" fill="white"/>
<path d="M116.563 45.8189L115.678 46.642C115.352 46.9451 114.824 46.9451 114.498 46.642C114.172 46.339 114.172 45.8476 114.498 45.5445L115.383 44.7214L113.052 42.5539H118.894V47.9864L116.563 45.8189Z" fill="white"/>
<g filter="url(#filter0_d_33_13)">
<path fill-rule="evenodd" clip-rule="evenodd" d="M23.6451 29.3899L23.6598 32.186H27.9741C28.7403 32.186 29.3613 31.6066 29.3575 30.8941L29.3564 30.6817C29.3527 29.9691 28.7257 29.3899 27.9593 29.3899H24.2357H23.6451ZM29.9053 36.4362L29.9041 36.2118C29.9 35.417 29.2015 34.7717 28.3469 34.7717H27.9878H23.6736L23.69 37.8764H28.3631C29.2177 37.8764 29.9095 37.23 29.9053 36.4362ZM31.2744 33.2623C32.1329 33.9979 32.6773 35.0463 32.6835 36.2118L32.6847 36.4363C32.6963 38.6551 30.7636 40.461 28.3765 40.461H28.2708L28.2769 41.6486H25.4975L25.4912 40.461H24.352L24.3583 41.6486H21.5788L21.5726 40.461H20.9237H19.5453L19.5317 37.8765H20.9102L20.894 34.7717L20.8803 32.1861L20.8656 29.39H19.4872L19.4736 26.8044H21.5009L21.4933 25.3513H24.2728L24.2804 26.8044H25.4197L25.412 25.3513H28.1916L28.1992 26.8166C30.3813 26.9397 32.1253 28.6234 32.1361 30.6818L32.1371 30.8942C32.1418 31.7862 31.8174 32.606 31.2744 33.2623Z" fill="white"/>
</g>
<defs>
<filter id="filter0_d_33_13" x="12.1936" y="21.7113" width="27.771" height="30.8574" filterUnits="userSpaceOnUse" color-interpolation-filters="sRGB">
<feFlood flood-opacity="0" result="BackgroundImageFix"/>
<feColorMatrix in="SourceAlpha" type="matrix" values="0 0 0 0 0 0 0 0 0 0 0 0 0 0 0 0 0 0 127 0" result="hardAlpha"/>
<feOffset dy="3.64002"/>
<feGaussianBlur stdDeviation="3.64002"/>
<feColorMatrix type="matrix" values="0 0 0 0 0 0 0 0 0 0 0 0 0 0 0 0 0 0 0.0744452 0"/>
<feBlend mode="normal" in2="BackgroundImageFix" result="effect1_dropShadow_33_13"/>
<feBlend mode="normal" in="SourceGraphic" in2="effect1_dropShadow_33_13" result="shape"/>
</filter>
<linearGradient id="paint0_linear_33_13" x1="-92.5" y1="33.5" x2="-43.9163" y2="136.087" gradientUnits="userSpaceOnUse">
<stop stop-color="#42E8E0"/>
<stop offset="1" stop-color="#0B98C5"/>
</linearGradient>
<linearGradient id="paint1_linear_33_13" x1="83.0949" y1="39.2982" x2="77.4918" y2="54.6177" gradientUnits="userSpaceOnUse">
<stop stop-color="#AAFFF7"/>
<stop offset="1" stop-color="white"/>
</linearGradient>
</defs>
</svg>
