<svg width="502" height="255" viewBox="0 0 502 255" fill="none" xmlns="http://www.w3.org/2000/svg">
<g filter="url(#filter0_bd_33_205)">
<rect x="60" y="43" width="388.011" height="85" rx="11.0388" fill="url(#paint0_linear_33_205)"/>
</g>
<path d="M212.864 82V65.2H210.152C210.056 65.84 209.856 66.376 209.552 66.808C209.248 67.24 208.872 67.592 208.424 67.864C207.992 68.12 207.496 68.304 206.936 68.416C206.392 68.512 205.824 68.552 205.232 68.536V71.104H209.456V82H212.864ZM218.231 71.656H221.495C221.495 71.208 221.535 70.76 221.615 70.312C221.711 69.848 221.863 69.432 222.071 69.064C222.279 68.68 222.551 68.376 222.887 68.152C223.239 67.912 223.663 67.792 224.159 67.792C224.895 67.792 225.495 68.024 225.959 68.488C226.439 68.936 226.679 69.568 226.679 70.384C226.679 70.896 226.559 71.352 226.319 71.752C226.095 72.152 225.807 72.512 225.455 72.832C225.119 73.152 224.743 73.448 224.327 73.72C223.911 73.976 223.519 74.232 223.151 74.488C222.431 74.984 221.743 75.472 221.087 75.952C220.447 76.432 219.887 76.96 219.407 77.536C218.927 78.096 218.543 78.736 218.255 79.456C217.983 80.176 217.847 81.024 217.847 82H230.183V79.072H222.239C222.655 78.496 223.135 77.992 223.679 77.56C224.223 77.128 224.783 76.728 225.359 76.36C225.935 75.976 226.503 75.592 227.063 75.208C227.639 74.824 228.151 74.4 228.599 73.936C229.047 73.456 229.407 72.912 229.679 72.304C229.951 71.696 230.087 70.968 230.087 70.12C230.087 69.304 229.927 68.568 229.607 67.912C229.303 67.256 228.887 66.704 228.359 66.256C227.831 65.808 227.215 65.464 226.511 65.224C225.823 64.984 225.095 64.864 224.327 64.864C223.319 64.864 222.423 65.04 221.639 65.392C220.871 65.728 220.231 66.208 219.719 66.832C219.207 67.44 218.823 68.16 218.567 68.992C218.311 69.808 218.199 70.696 218.231 71.656ZM236.703 71.992V74.392C237.119 74.392 237.551 74.408 237.999 74.44C238.463 74.456 238.887 74.544 239.271 74.704C239.655 74.848 239.967 75.088 240.207 75.424C240.463 75.76 240.591 76.248 240.591 76.888C240.591 77.704 240.327 78.352 239.799 78.832C239.271 79.296 238.623 79.528 237.855 79.528C237.359 79.528 236.927 79.44 236.559 79.264C236.207 79.088 235.911 78.856 235.671 78.568C235.431 78.264 235.247 77.912 235.119 77.512C234.991 77.096 234.919 76.664 234.903 76.216H231.663C231.647 77.192 231.783 78.056 232.071 78.808C232.375 79.56 232.799 80.2 233.343 80.728C233.887 81.24 234.543 81.632 235.311 81.904C236.095 82.176 236.959 82.312 237.903 82.312C238.719 82.312 239.503 82.192 240.255 81.952C241.007 81.712 241.671 81.36 242.247 80.896C242.823 80.432 243.279 79.856 243.615 79.168C243.967 78.48 244.143 77.696 244.143 76.816C244.143 75.856 243.879 75.032 243.351 74.344C242.823 73.656 242.095 73.208 241.167 73V72.952C241.951 72.728 242.535 72.304 242.919 71.68C243.319 71.056 243.519 70.336 243.519 69.52C243.519 68.768 243.351 68.104 243.015 67.528C242.679 66.952 242.239 66.464 241.695 66.064C241.167 65.664 240.567 65.368 239.895 65.176C239.223 64.968 238.551 64.864 237.879 64.864C237.015 64.864 236.231 65.008 235.527 65.296C234.823 65.568 234.215 65.96 233.703 66.472C233.207 66.984 232.815 67.6 232.527 68.32C232.255 69.024 232.103 69.808 232.071 70.672H235.311C235.295 69.808 235.503 69.096 235.935 68.536C236.383 67.96 237.039 67.672 237.903 67.672C238.527 67.672 239.079 67.864 239.559 68.248C240.039 68.632 240.279 69.184 240.279 69.904C240.279 70.384 240.159 70.768 239.919 71.056C239.695 71.344 239.399 71.568 239.031 71.728C238.679 71.872 238.295 71.96 237.879 71.992C237.463 72.024 237.071 72.024 236.703 71.992ZM246.583 78.304V82H248.311C248.327 82.256 248.295 82.504 248.215 82.744C248.135 83 248.015 83.224 247.855 83.416C247.695 83.624 247.503 83.8 247.279 83.944C247.071 84.088 246.847 84.184 246.607 84.232V85.96C247.119 85.88 247.599 85.728 248.047 85.504C248.511 85.296 248.911 85.024 249.247 84.688C249.583 84.352 249.847 83.952 250.039 83.488C250.247 83.04 250.351 82.544 250.351 82V78.304H246.583ZM256.263 73.528C256.263 73.24 256.263 72.896 256.263 72.496C256.279 72.08 256.311 71.656 256.359 71.224C256.407 70.792 256.487 70.368 256.599 69.952C256.711 69.52 256.863 69.136 257.055 68.8C257.263 68.464 257.519 68.192 257.823 67.984C258.143 67.776 258.535 67.672 258.999 67.672C259.463 67.672 259.855 67.776 260.175 67.984C260.495 68.192 260.759 68.464 260.967 68.8C261.175 69.136 261.327 69.52 261.423 69.952C261.535 70.368 261.615 70.792 261.663 71.224C261.727 71.656 261.759 72.08 261.759 72.496C261.775 72.896 261.783 73.24 261.783 73.528C261.783 74.008 261.767 74.592 261.735 75.28C261.703 75.952 261.599 76.608 261.423 77.248C261.263 77.872 260.991 78.408 260.607 78.856C260.239 79.304 259.703 79.528 258.999 79.528C258.311 79.528 257.783 79.304 257.415 78.856C257.047 78.408 256.775 77.872 256.599 77.248C256.439 76.608 256.343 75.952 256.311 75.28C256.279 74.592 256.263 74.008 256.263 73.528ZM252.855 73.528C252.855 75.208 253.015 76.616 253.335 77.752C253.671 78.872 254.119 79.768 254.679 80.44C255.239 81.112 255.887 81.592 256.623 81.88C257.375 82.168 258.167 82.312 258.999 82.312C259.847 82.312 260.639 82.168 261.375 81.88C262.127 81.592 262.783 81.112 263.343 80.44C263.919 79.768 264.367 78.872 264.687 77.752C265.023 76.616 265.191 75.208 265.191 73.528C265.191 71.896 265.023 70.528 264.687 69.424C264.367 68.304 263.919 67.408 263.343 66.736C262.783 66.064 262.127 65.584 261.375 65.296C260.639 65.008 259.847 64.864 258.999 64.864C258.167 64.864 257.375 65.008 256.623 65.296C255.887 65.584 255.239 66.064 254.679 66.736C254.119 67.408 253.671 68.304 253.335 69.424C253.015 70.528 252.855 71.896 252.855 73.528ZM271.711 71.992V74.392C272.127 74.392 272.559 74.408 273.007 74.44C273.471 74.456 273.895 74.544 274.279 74.704C274.663 74.848 274.975 75.088 275.215 75.424C275.471 75.76 275.599 76.248 275.599 76.888C275.599 77.704 275.335 78.352 274.807 78.832C274.279 79.296 273.631 79.528 272.863 79.528C272.367 79.528 271.935 79.44 271.567 79.264C271.215 79.088 270.919 78.856 270.679 78.568C270.439 78.264 270.255 77.912 270.127 77.512C269.999 77.096 269.927 76.664 269.911 76.216H266.671C266.655 77.192 266.791 78.056 267.079 78.808C267.383 79.56 267.807 80.2 268.351 80.728C268.895 81.24 269.551 81.632 270.319 81.904C271.103 82.176 271.967 82.312 272.911 82.312C273.727 82.312 274.511 82.192 275.263 81.952C276.015 81.712 276.679 81.36 277.255 80.896C277.831 80.432 278.287 79.856 278.623 79.168C278.975 78.48 279.151 77.696 279.151 76.816C279.151 75.856 278.887 75.032 278.359 74.344C277.831 73.656 277.103 73.208 276.175 73V72.952C276.959 72.728 277.543 72.304 277.927 71.68C278.327 71.056 278.527 70.336 278.527 69.52C278.527 68.768 278.359 68.104 278.023 67.528C277.687 66.952 277.247 66.464 276.703 66.064C276.175 65.664 275.575 65.368 274.903 65.176C274.231 64.968 273.559 64.864 272.887 64.864C272.023 64.864 271.239 65.008 270.535 65.296C269.831 65.568 269.223 65.96 268.711 66.472C268.215 66.984 267.823 67.6 267.535 68.32C267.263 69.024 267.111 69.808 267.079 70.672H270.319C270.303 69.808 270.511 69.096 270.943 68.536C271.391 67.96 272.047 67.672 272.911 67.672C273.535 67.672 274.087 67.864 274.567 68.248C275.047 68.632 275.287 69.184 275.287 69.904C275.287 70.384 275.167 70.768 274.927 71.056C274.703 71.344 274.407 71.568 274.039 71.728C273.687 71.872 273.303 71.96 272.887 71.992C272.471 72.024 272.079 72.024 271.711 71.992ZM284.039 73.528C284.039 73.24 284.039 72.896 284.039 72.496C284.055 72.08 284.087 71.656 284.135 71.224C284.183 70.792 284.263 70.368 284.375 69.952C284.487 69.52 284.639 69.136 284.831 68.8C285.039 68.464 285.295 68.192 285.599 67.984C285.919 67.776 286.311 67.672 286.775 67.672C287.239 67.672 287.631 67.776 287.951 67.984C288.271 68.192 288.535 68.464 288.743 68.8C288.951 69.136 289.103 69.52 289.199 69.952C289.311 70.368 289.391 70.792 289.439 71.224C289.503 71.656 289.535 72.08 289.535 72.496C289.551 72.896 289.559 73.24 289.559 73.528C289.559 74.008 289.543 74.592 289.511 75.28C289.479 75.952 289.375 76.608 289.199 77.248C289.039 77.872 288.767 78.408 288.383 78.856C288.015 79.304 287.479 79.528 286.775 79.528C286.087 79.528 285.559 79.304 285.191 78.856C284.823 78.408 284.551 77.872 284.375 77.248C284.215 76.608 284.119 75.952 284.087 75.28C284.055 74.592 284.039 74.008 284.039 73.528ZM280.631 73.528C280.631 75.208 280.791 76.616 281.111 77.752C281.447 78.872 281.895 79.768 282.455 80.44C283.015 81.112 283.663 81.592 284.399 81.88C285.151 82.168 285.943 82.312 286.775 82.312C287.623 82.312 288.415 82.168 289.151 81.88C289.903 81.592 290.559 81.112 291.119 80.44C291.695 79.768 292.143 78.872 292.463 77.752C292.799 76.616 292.967 75.208 292.967 73.528C292.967 71.896 292.799 70.528 292.463 69.424C292.143 68.304 291.695 67.408 291.119 66.736C290.559 66.064 289.903 65.584 289.151 65.296C288.415 65.008 287.623 64.864 286.775 64.864C285.943 64.864 285.151 65.008 284.399 65.296C283.663 65.584 283.015 66.064 282.455 66.736C281.895 67.408 281.447 68.304 281.111 69.424C280.791 70.528 280.631 71.896 280.631 73.528ZM295.478 78.304V82H297.206C297.222 82.256 297.19 82.504 297.11 82.744C297.03 83 296.91 83.224 296.75 83.416C296.59 83.624 296.398 83.8 296.174 83.944C295.966 84.088 295.742 84.184 295.502 84.232V85.96C296.014 85.88 296.494 85.728 296.942 85.504C297.406 85.296 297.806 85.024 298.142 84.688C298.478 84.352 298.742 83.952 298.934 83.488C299.142 83.04 299.246 82.544 299.246 82V78.304H295.478ZM302.134 71.656H305.398C305.398 71.208 305.438 70.76 305.518 70.312C305.614 69.848 305.766 69.432 305.974 69.064C306.182 68.68 306.454 68.376 306.79 68.152C307.142 67.912 307.566 67.792 308.062 67.792C308.798 67.792 309.398 68.024 309.862 68.488C310.342 68.936 310.582 69.568 310.582 70.384C310.582 70.896 310.462 71.352 310.222 71.752C309.998 72.152 309.71 72.512 309.358 72.832C309.022 73.152 308.646 73.448 308.23 73.72C307.814 73.976 307.422 74.232 307.054 74.488C306.334 74.984 305.646 75.472 304.99 75.952C304.35 76.432 303.79 76.96 303.31 77.536C302.83 78.096 302.446 78.736 302.158 79.456C301.886 80.176 301.75 81.024 301.75 82H314.086V79.072H306.142C306.558 78.496 307.038 77.992 307.582 77.56C308.126 77.128 308.686 76.728 309.262 76.36C309.838 75.976 310.406 75.592 310.966 75.208C311.542 74.824 312.054 74.4 312.502 73.936C312.95 73.456 313.31 72.912 313.582 72.304C313.854 71.696 313.99 70.968 313.99 70.12C313.99 69.304 313.83 68.568 313.51 67.912C313.206 67.256 312.79 66.704 312.262 66.256C311.734 65.808 311.118 65.464 310.414 65.224C309.726 64.984 308.998 64.864 308.23 64.864C307.222 64.864 306.326 65.04 305.542 65.392C304.774 65.728 304.134 66.208 303.622 66.832C303.11 67.44 302.726 68.16 302.47 68.992C302.214 69.808 302.102 70.696 302.134 71.656ZM320.606 71.992V74.392C321.022 74.392 321.454 74.408 321.902 74.44C322.366 74.456 322.79 74.544 323.174 74.704C323.558 74.848 323.87 75.088 324.11 75.424C324.366 75.76 324.494 76.248 324.494 76.888C324.494 77.704 324.23 78.352 323.702 78.832C323.174 79.296 322.526 79.528 321.758 79.528C321.262 79.528 320.83 79.44 320.462 79.264C320.11 79.088 319.814 78.856 319.574 78.568C319.334 78.264 319.15 77.912 319.022 77.512C318.894 77.096 318.822 76.664 318.806 76.216H315.566C315.55 77.192 315.686 78.056 315.974 78.808C316.278 79.56 316.702 80.2 317.246 80.728C317.79 81.24 318.446 81.632 319.214 81.904C319.998 82.176 320.862 82.312 321.806 82.312C322.622 82.312 323.406 82.192 324.158 81.952C324.91 81.712 325.574 81.36 326.15 80.896C326.726 80.432 327.182 79.856 327.518 79.168C327.87 78.48 328.046 77.696 328.046 76.816C328.046 75.856 327.782 75.032 327.254 74.344C326.726 73.656 325.998 73.208 325.07 73V72.952C325.854 72.728 326.438 72.304 326.822 71.68C327.222 71.056 327.422 70.336 327.422 69.52C327.422 68.768 327.254 68.104 326.918 67.528C326.582 66.952 326.142 66.464 325.598 66.064C325.07 65.664 324.47 65.368 323.798 65.176C323.126 64.968 322.454 64.864 321.782 64.864C320.918 64.864 320.134 65.008 319.43 65.296C318.726 65.568 318.118 65.96 317.606 66.472C317.11 66.984 316.718 67.6 316.43 68.32C316.158 69.024 316.006 69.808 315.974 70.672H319.214C319.198 69.808 319.406 69.096 319.838 68.536C320.286 67.96 320.942 67.672 321.806 67.672C322.43 67.672 322.982 67.864 323.462 68.248C323.942 68.632 324.182 69.184 324.182 69.904C324.182 70.384 324.062 70.768 323.822 71.056C323.598 71.344 323.302 71.568 322.934 71.728C322.582 71.872 322.198 71.96 321.782 71.992C321.366 72.024 320.974 72.024 320.606 71.992Z" fill="white"/>
<path d="M186.832 76.0152L184.857 78.2881C184.13 79.1249 182.952 79.1249 182.225 78.2881C181.498 77.4512 181.498 76.0945 182.225 75.2576L184.199 72.9848L179 67H192.031V82L186.832 76.0152Z" fill="#42E8E0"/>
<path d="M231.865 102.261V98.5021H235.011C235.353 98.5021 235.673 98.5242 235.971 98.5683C236.28 98.6014 236.551 98.6842 236.782 98.8167C237.014 98.9492 237.196 99.1368 237.329 99.3797C237.461 99.6225 237.527 99.9537 237.527 100.373C237.527 101.002 237.329 101.477 236.931 101.797C236.545 102.106 235.905 102.261 235.011 102.261H231.865ZM230.292 97.1774V109H236.004C236.589 109 237.102 108.906 237.544 108.719C237.997 108.52 238.372 108.266 238.67 107.957C238.979 107.637 239.211 107.272 239.365 106.864C239.52 106.456 239.597 106.036 239.597 105.606C239.597 104.877 239.404 104.259 239.018 103.751C238.631 103.243 238.074 102.912 237.345 102.758V102.724C237.908 102.504 238.339 102.167 238.637 101.714C238.946 101.251 239.101 100.704 239.101 100.075C239.101 99.479 238.963 98.9768 238.687 98.5683C238.422 98.1599 238.096 97.8398 237.71 97.6079C237.533 97.4976 237.318 97.4148 237.064 97.3596C236.821 97.3044 236.556 97.2657 236.269 97.2437C235.982 97.2106 235.69 97.194 235.391 97.194C235.104 97.183 234.834 97.1774 234.58 97.1774H230.292ZM231.865 107.675V103.585H235.458C235.789 103.585 236.109 103.619 236.418 103.685C236.727 103.74 236.998 103.845 237.229 103.999C237.472 104.143 237.665 104.342 237.809 104.596C237.952 104.849 238.024 105.17 238.024 105.556C238.024 106.218 237.826 106.737 237.428 107.112C237.042 107.488 236.501 107.675 235.805 107.675H231.865ZM242.107 97.1774V109H243.68V97.1774H242.107ZM249.422 98.5021V109H250.995V98.5021H254.936V97.1774H245.481V98.5021H249.422ZM263.5 100.638H264.991C264.968 99.9868 264.842 99.4294 264.61 98.9657C264.389 98.4911 264.08 98.0992 263.682 97.7901C263.296 97.481 262.844 97.2547 262.325 97.1112C261.806 96.9677 261.243 96.8959 260.636 96.8959C260.095 96.8959 259.565 96.9677 259.046 97.1112C258.538 97.2437 258.08 97.4534 257.672 97.7404C257.274 98.0164 256.954 98.3751 256.711 98.8167C256.469 99.2472 256.347 99.7605 256.347 100.357C256.347 100.898 256.452 101.35 256.662 101.714C256.883 102.068 257.17 102.36 257.523 102.592C257.887 102.813 258.296 102.995 258.748 103.138C259.201 103.271 259.659 103.392 260.122 103.503C260.597 103.602 261.061 103.701 261.513 103.801C261.966 103.9 262.369 104.033 262.722 104.198C263.086 104.353 263.373 104.557 263.583 104.811C263.804 105.065 263.914 105.396 263.914 105.804C263.914 106.235 263.826 106.588 263.649 106.864C263.473 107.14 263.241 107.361 262.954 107.526C262.667 107.681 262.341 107.791 261.977 107.857C261.624 107.924 261.27 107.957 260.917 107.957C260.476 107.957 260.045 107.902 259.626 107.791C259.206 107.681 258.836 107.51 258.516 107.278C258.207 107.046 257.953 106.754 257.755 106.4C257.567 106.036 257.473 105.606 257.473 105.109H255.983C255.983 105.826 256.11 106.45 256.364 106.98C256.629 107.499 256.982 107.929 257.423 108.271C257.876 108.603 258.395 108.851 258.98 109.017C259.576 109.182 260.205 109.265 260.868 109.265C261.408 109.265 261.949 109.199 262.49 109.066C263.042 108.945 263.539 108.746 263.981 108.47C264.422 108.183 264.781 107.819 265.057 107.377C265.344 106.925 265.487 106.384 265.487 105.755C265.487 105.17 265.377 104.684 265.156 104.297C264.946 103.911 264.659 103.591 264.295 103.337C263.942 103.083 263.539 102.884 263.086 102.741C262.634 102.586 262.17 102.454 261.695 102.344C261.232 102.233 260.774 102.134 260.321 102.046C259.869 101.946 259.46 101.825 259.096 101.681C258.743 101.538 258.456 101.356 258.235 101.135C258.025 100.903 257.92 100.605 257.92 100.241C257.92 99.8543 257.992 99.5342 258.135 99.2803C258.29 99.0154 258.489 98.8057 258.732 98.6511C258.985 98.4966 259.272 98.3862 259.593 98.32C259.913 98.2537 260.238 98.2206 260.57 98.2206C261.386 98.2206 262.054 98.4138 262.573 98.8001C263.103 99.1755 263.412 99.7881 263.5 100.638ZM268.723 103.089C268.723 102.493 268.801 101.908 268.955 101.334C269.11 100.748 269.353 100.224 269.684 99.7605C270.015 99.2969 270.44 98.9271 270.959 98.6511C271.478 98.3641 272.096 98.2206 272.813 98.2206C273.531 98.2206 274.149 98.3641 274.668 98.6511C275.187 98.9271 275.612 99.2969 275.943 99.7605C276.274 100.224 276.517 100.748 276.671 101.334C276.826 101.908 276.903 102.493 276.903 103.089C276.903 103.685 276.826 104.275 276.671 104.86C276.517 105.434 276.274 105.953 275.943 106.417C275.612 106.881 275.187 107.256 274.668 107.543C274.149 107.819 273.531 107.957 272.813 107.957C272.096 107.957 271.478 107.819 270.959 107.543C270.44 107.256 270.015 106.881 269.684 106.417C269.353 105.953 269.11 105.434 268.955 104.86C268.801 104.275 268.723 103.685 268.723 103.089ZM267.15 103.089C267.15 103.895 267.266 104.673 267.498 105.423C267.741 106.163 268.1 106.82 268.574 107.394C269.049 107.968 269.64 108.426 270.346 108.768C271.053 109.099 271.875 109.265 272.813 109.265C273.752 109.265 274.574 109.099 275.28 108.768C275.987 108.426 276.578 107.968 277.052 107.394C277.527 106.82 277.88 106.163 278.112 105.423C278.355 104.673 278.476 103.895 278.476 103.089C278.476 102.283 278.355 101.51 278.112 100.771C277.88 100.02 277.527 99.3576 277.052 98.7836C276.578 98.2096 275.987 97.7515 275.28 97.4092C274.574 97.067 273.752 96.8959 272.813 96.8959C271.875 96.8959 271.053 97.067 270.346 97.4092C269.64 97.7515 269.049 98.2096 268.574 98.7836C268.1 99.3576 267.741 100.02 267.498 100.771C267.266 101.51 267.15 102.283 267.15 103.089Z" fill="#7877B1"/>
<defs>
<filter id="filter0_bd_33_205" x="-55.0098" y="0.923225" width="556.318" height="253.307" filterUnits="userSpaceOnUse" color-interpolation-filters="sRGB">
<feFlood flood-opacity="0" result="BackgroundImageFix"/>
<feGaussianBlur in="BackgroundImageFix" stdDeviation="11.4576"/>
<feComposite in2="SourceAlpha" operator="in" result="effect1_backgroundBlur_33_205"/>
<feColorMatrix in="SourceAlpha" type="matrix" values="0 0 0 0 0 0 0 0 0 0 0 0 0 0 0 0 0 0 127 0" result="hardAlpha"/>
<feOffset dx="-30.8563" dy="42.0768"/>
<feGaussianBlur stdDeviation="42.0768"/>
<feColorMatrix type="matrix" values="0 0 0 0 0.0883651 0 0 0 0 0.0720128 0 0 0 0 0.169563 0 0 0 1 0"/>
<feBlend mode="normal" in2="effect1_backgroundBlur_33_205" result="effect2_dropShadow_33_205"/>
<feBlend mode="normal" in="SourceGraphic" in2="effect2_dropShadow_33_205" result="shape"/>
</filter>
<linearGradient id="paint0_linear_33_205" x1="431.059" y1="31.8525" x2="56.4469" y2="63.0753" gradientUnits="userSpaceOnUse">
<stop stop-color="#292558" stop-opacity="0.536345"/>
<stop offset="0.401128" stop-color="#262353" stop-opacity="0.866791"/>
<stop offset="1" stop-color="#282659" stop-opacity="0.50218"/>
</linearGradient>
</defs>
</svg>
