<svg width="137" height="39" viewBox="0 0 137 39" fill="none" xmlns="http://www.w3.org/2000/svg">
<path d="M55.112 13.576C56.552 13.576 57.7414 13.9547 58.68 14.712C59.6294 15.4693 60.2427 16.4933 60.52 17.784H57.624C57.4107 17.2613 57.08 16.8507 56.632 16.552C56.1947 16.2533 55.672 16.104 55.064 16.104C54.264 16.104 53.6187 16.3973 53.128 16.984C52.6374 17.5707 52.392 18.3547 52.392 19.336C52.392 20.3173 52.6374 21.1013 53.128 21.688C53.6187 22.264 54.264 22.552 55.064 22.552C55.672 22.552 56.1947 22.4027 56.632 22.104C57.08 21.8053 57.4107 21.4 57.624 20.888H60.52C60.2427 22.168 59.6294 23.192 58.68 23.96C57.7414 24.7173 56.552 25.096 55.112 25.096C54.0134 25.096 53.048 24.856 52.216 24.376C51.384 23.8853 50.7387 23.2027 50.28 22.328C49.832 21.4533 49.608 20.456 49.608 19.336C49.608 18.216 49.832 17.2187 50.28 16.344C50.7387 15.4693 51.384 14.792 52.216 14.312C53.048 13.8213 54.0134 13.576 55.112 13.576Z" fill="white"/>
<path d="M64.7894 17.752C65.1307 17.208 65.5681 16.776 66.1014 16.456C66.6454 16.136 67.2321 15.976 67.8614 15.976V18.904H67.0774C66.3521 18.904 65.7867 19.0587 65.3814 19.368C64.9867 19.6773 64.7894 20.2 64.7894 20.936V25H62.0534V16.072H64.7894V17.752Z" fill="white"/>
<path d="M71.0705 16.072L73.2145 21.544L75.2145 16.072H78.2385L72.6705 29.256H69.6625L71.7585 24.664L68.0145 16.072H71.0705Z" fill="white"/>
<path d="M84.7152 15.96C85.4512 15.96 86.1072 16.1467 86.6832 16.52C87.2698 16.8827 87.7285 17.4107 88.0592 18.104C88.4005 18.7867 88.5712 19.5973 88.5712 20.536C88.5712 21.464 88.4005 22.2747 88.0592 22.968C87.7285 23.6613 87.2698 24.1947 86.6832 24.568C86.1072 24.9307 85.4512 25.112 84.7152 25.112C84.0325 25.112 83.4458 24.9573 82.9552 24.648C82.4645 24.3387 82.1072 23.9173 81.8832 23.384V29.256H79.1472V16.072H81.8832V17.688C82.1072 17.1547 82.4645 16.7333 82.9552 16.424C83.4458 16.1147 84.0325 15.96 84.7152 15.96ZM83.8352 18.36C83.2592 18.36 82.7845 18.5573 82.4112 18.952C82.0485 19.336 81.8672 19.864 81.8672 20.536C81.8672 21.1973 82.0485 21.7253 82.4112 22.12C82.7845 22.5147 83.2592 22.712 83.8352 22.712C84.4218 22.712 84.8912 22.52 85.2432 22.136C85.6058 21.752 85.7872 21.2187 85.7872 20.536C85.7872 19.8533 85.6058 19.32 85.2432 18.936C84.8912 18.552 84.4218 18.36 83.8352 18.36Z" fill="white"/>
<path d="M95.0469 22.648V25H93.8149C92.7696 25 91.9536 24.744 91.3669 24.232C90.7909 23.7093 90.5029 22.8507 90.5029 21.656V18.376H89.3029V16.072H90.5029V13.88H93.2389V16.072H95.0309V18.376H93.2389V21.704C93.2389 22.056 93.3082 22.3013 93.4469 22.44C93.5962 22.5787 93.8416 22.648 94.1829 22.648H95.0469Z" fill="white"/>
<path d="M100.761 15.96C101.646 15.96 102.435 16.1467 103.129 16.52C103.833 16.8827 104.382 17.4107 104.777 18.104C105.182 18.7973 105.385 19.608 105.385 20.536C105.385 21.464 105.182 22.2747 104.777 22.968C104.382 23.6613 103.833 24.1947 103.129 24.568C102.435 24.9307 101.646 25.112 100.761 25.112C99.8753 25.112 99.0807 24.9307 98.3767 24.568C97.6727 24.1947 97.118 23.6613 96.7127 22.968C96.318 22.2747 96.1207 21.464 96.1207 20.536C96.1207 19.608 96.318 18.7973 96.7127 18.104C97.118 17.4107 97.6727 16.8827 98.3767 16.52C99.0807 16.1467 99.8753 15.96 100.761 15.96ZM100.761 18.328C100.238 18.328 99.7953 18.52 99.4327 18.904C99.0807 19.2773 98.9047 19.8213 98.9047 20.536C98.9047 21.2507 99.0807 21.7947 99.4327 22.168C99.7953 22.5413 100.238 22.728 100.761 22.728C101.283 22.728 101.721 22.5413 102.073 22.168C102.425 21.7947 102.601 21.2507 102.601 20.536C102.601 19.8213 102.425 19.2773 102.073 18.904C101.721 18.52 101.283 18.328 100.761 18.328Z" fill="white"/>
<path d="M116.659 19.336C116.659 20.4773 116.425 21.4747 115.955 22.328C115.497 23.1707 114.819 23.8267 113.923 24.296C113.038 24.7653 111.977 25 110.739 25H106.963V13.704H110.739C111.977 13.704 113.038 13.9387 113.923 14.408C114.819 14.8667 115.497 15.5173 115.955 16.36C116.425 17.2027 116.659 18.1947 116.659 19.336ZM110.595 23.352C111.95 23.352 112.99 23 113.715 22.296C114.441 21.592 114.803 20.6053 114.803 19.336C114.803 18.0667 114.441 17.08 113.715 16.376C112.99 15.672 111.95 15.32 110.595 15.32H108.787V23.352H110.595Z" fill="white"/>
<path d="M120.319 15.176V18.6H124.479V20.008H120.319V23.512H124.959V25H118.495V13.704H124.959V15.176H120.319Z" fill="white"/>
<path d="M127.865 13.704L131.113 23.048L134.377 13.704H136.361L132.281 25H129.945L125.881 13.704H127.865Z" fill="white"/>
<g clip-path="url(#clip0_22_576)">
<path d="M30.569 14.8428C30.4121 14.9895 31.0248 14.7543 19.6848 18.3483C19.4189 18.4324 19.9834 18.5597 8.65193 14.9685C8.65117 14.9685 8.65041 14.9677 8.64965 14.9677C8.29644 14.8572 8.15544 14.4527 8.25507 14.203C8.25507 14.0818 8.1709 14.2507 19.0182 0.235973C19.2634 -0.0786195 19.7373 -0.0786957 19.9826 0.235973C30.9134 14.359 30.7458 14.0776 30.7458 14.203C30.8251 14.4012 30.737 14.7138 30.569 14.8428Z" fill="url(#paint0_linear_22_576)"/>
<path d="M19.0331 38.7819L8.369 26.0436C7.97907 25.5777 8.44128 24.888 9.02035 25.0716L19.5004 28.393L29.9804 25.0716C30.5593 24.888 31.0219 25.5777 30.6318 26.0436L19.9676 38.7819C19.7241 39.073 19.2764 39.0724 19.0331 38.7819Z" fill="url(#paint1_linear_22_576)"/>
<path d="M30.3489 23.6339C18.9083 27.2598 19.6417 27.0418 19.5004 27.0418C19.3523 27.0418 20.0529 27.2472 8.65191 23.6339C8.08671 23.4534 8.08709 22.6519 8.65191 22.4715L11.5328 21.5584C11.6683 21.5154 11.1992 21.3943 19.316 23.9668C19.4315 24.0033 19.5625 24.0054 19.6846 23.9668L27.2837 21.5584C27.4136 21.5172 27.2164 21.4787 30.3488 22.4715C30.9141 22.6519 30.9137 23.4535 30.3489 23.6339Z" fill="url(#paint2_linear_22_576)"/>
<path d="M30.3489 19.3057C18.9083 22.9316 19.6417 22.7136 19.5004 22.7136C19.3523 22.7136 20.0529 22.919 8.65191 19.3057C8.08671 19.1252 8.08709 18.3236 8.65191 18.1433C11.7778 17.1526 11.5855 17.1885 11.7176 17.2304C19.8826 19.8182 19.359 19.6667 19.5004 19.6667C19.6415 19.6667 19.1153 19.8192 27.2832 17.2304C27.4136 17.1891 27.2183 17.1511 30.3489 18.1433C30.9142 18.3238 30.9137 19.1254 30.3489 19.3057Z" fill="url(#paint3_linear_22_576)"/>
</g>
<defs>
<linearGradient id="paint0_linear_22_576" x1="19.4996" y1="0" x2="19.4996" y2="18.3765" gradientUnits="userSpaceOnUse">
<stop stop-color="#7000FF"/>
<stop offset="0.869792" stop-color="#1B166A"/>
</linearGradient>
<linearGradient id="paint1_linear_22_576" x1="19.5004" y1="25.0412" x2="19.5004" y2="39" gradientUnits="userSpaceOnUse">
<stop offset="0.151042" stop-color="#1B166A"/>
<stop offset="1" stop-color="#7000FF"/>
</linearGradient>
<linearGradient id="paint2_linear_22_576" x1="19.5004" y1="21.5422" x2="19.5004" y2="27.0443" gradientUnits="userSpaceOnUse">
<stop offset="0.182292" stop-color="#1B166A"/>
<stop offset="1" stop-color="#7000FF"/>
</linearGradient>
<linearGradient id="paint3_linear_22_576" x1="19.5004" y1="17.2142" x2="19.5004" y2="22.7161" gradientUnits="userSpaceOnUse">
<stop stop-color="#7000FF"/>
<stop offset="0.869792" stop-color="#1B166A"/>
</linearGradient>
<clipPath id="clip0_22_576">
<rect width="39" height="39" fill="white"/>
</clipPath>
</defs>
</svg>
