<svg width="185" height="74" viewBox="0 0 185 74" fill="none" xmlns="http://www.w3.org/2000/svg">
<path d="M139.879 23.2959L137.16 27.38H139.082L140.818 24.6828L142.522 27.38H144.564L141.845 23.3069L144.346 19.5831H142.467L140.884 22.0729L139.355 19.5831H137.368L139.879 23.2959ZM146.966 23.1103V20.9154H148.845C149.238 20.9154 149.532 21.0027 149.729 21.1774C149.926 21.3449 150.024 21.6179 150.024 21.9964C150.024 22.3896 149.926 22.6735 149.729 22.8482C149.532 23.0229 149.238 23.1103 148.845 23.1103H146.966ZM145.252 19.5831V27.38H146.966V24.3333H148.681C149.11 24.3333 149.42 24.428 149.609 24.6173C149.798 24.8065 149.922 25.105 149.98 25.5127C150.024 25.8257 150.057 26.1533 150.078 26.4955C150.1 26.8377 150.159 27.1325 150.253 27.38H151.968C151.888 27.2708 151.826 27.1398 151.782 26.9869C151.746 26.8268 151.716 26.6593 151.695 26.4846C151.68 26.3099 151.669 26.1388 151.662 25.9713C151.655 25.8039 151.647 25.6583 151.64 25.5345C151.625 25.338 151.596 25.1414 151.553 24.9449C151.516 24.7483 151.454 24.5699 151.367 24.4098C151.28 24.2423 151.167 24.1004 151.029 23.9839C150.89 23.8601 150.715 23.7691 150.504 23.7109V23.6891C150.941 23.5143 151.254 23.2595 151.443 22.9247C151.64 22.5898 151.738 22.193 151.738 21.7344C151.738 21.4359 151.684 21.1592 151.575 20.9044C151.473 20.6424 151.32 20.413 151.116 20.2165C150.919 20.0199 150.679 19.867 150.395 19.7578C150.119 19.6414 149.805 19.5831 149.456 19.5831H145.252ZM154.847 23.2523V20.9154H156.179C156.376 20.9154 156.565 20.9299 156.747 20.959C156.929 20.9882 157.089 21.0464 157.228 21.1338C157.366 21.2138 157.475 21.3303 157.555 21.4832C157.643 21.6361 157.686 21.8363 157.686 22.0838C157.686 22.3313 157.643 22.5315 157.555 22.6844C157.475 22.8373 157.366 22.9574 157.228 23.0448C157.089 23.1249 156.929 23.1795 156.747 23.2086C156.565 23.2377 156.376 23.2523 156.179 23.2523H154.847ZM153.133 19.5831V27.38H154.847V24.5845H156.649C157.137 24.5845 157.552 24.5153 157.894 24.377C158.236 24.2314 158.513 24.0421 158.724 23.8092C158.942 23.5762 159.099 23.3105 159.193 23.012C159.295 22.7063 159.346 22.3969 159.346 22.0838C159.346 21.7635 159.295 21.4541 159.193 21.1556C159.099 20.8571 158.942 20.5914 158.724 20.3584C158.513 20.1255 158.236 19.9398 157.894 19.8015C157.552 19.6559 157.137 19.5831 156.649 19.5831H153.133Z" fill="#7473D0"/>
<path d="M72.1215 21.4746V22.5885C72.369 22.5575 72.632 22.5421 72.9105 22.5421C73.2405 22.5421 73.5447 22.5885 73.8232 22.6813C74.112 22.7638 74.3595 22.8979 74.5658 23.0835C74.772 23.2589 74.937 23.4806 75.0608 23.7487C75.1846 24.0066 75.2464 24.3057 75.2464 24.646C75.2464 24.976 75.1794 25.2751 75.0453 25.5433C74.9216 25.8011 74.7514 26.0228 74.5348 26.2085C74.3182 26.3838 74.0656 26.523 73.7768 26.6262C73.488 26.719 73.1838 26.7654 72.864 26.7654C72.1112 26.7654 71.5388 26.5437 71.1469 26.1002C70.755 25.6464 70.5487 25.0637 70.5281 24.3521H69.2131C69.2028 24.9193 69.2801 25.4247 69.4452 25.8681C69.6205 26.3116 69.868 26.6881 70.1877 26.9975C70.5074 27.2965 70.8942 27.5234 71.348 27.6781C71.8018 27.8328 72.3071 27.9102 72.864 27.9102C73.3797 27.9102 73.8644 27.8432 74.3182 27.7091C74.7823 27.5647 75.1846 27.3533 75.5249 27.0748C75.8652 26.7963 76.1334 26.4508 76.3293 26.0383C76.5356 25.6155 76.6387 25.1307 76.6387 24.5841C76.6387 23.9241 76.4737 23.3517 76.1437 22.8669C75.824 22.3822 75.3289 22.0677 74.6586 21.9233V21.8923C75.0917 21.6964 75.4527 21.4076 75.7415 21.026C76.0303 20.6444 76.1746 20.2061 76.1746 19.7111C76.1746 19.2057 76.087 18.7674 75.9116 18.3961C75.7466 18.0248 75.5146 17.7206 75.2155 17.4834C74.9164 17.2462 74.5606 17.0708 74.1481 16.9574C73.7458 16.8336 73.3075 16.7717 72.8331 16.7717C72.2865 16.7717 71.8018 16.8594 71.3789 17.0347C70.9664 17.2101 70.6209 17.4524 70.3424 17.7618C70.064 18.0712 69.8474 18.4425 69.6927 18.8757C69.5483 19.3088 69.4658 19.7884 69.4452 20.3144H70.7601C70.7601 19.9947 70.8014 19.6904 70.8839 19.4017C70.9664 19.1129 71.0901 18.8602 71.2552 18.6436C71.4305 18.427 71.6471 18.2569 71.9049 18.1331C72.173 17.999 72.4824 17.932 72.8331 17.932C73.39 17.932 73.8541 18.0815 74.2254 18.3806C74.5967 18.6694 74.7823 19.1077 74.7823 19.6956C74.7823 19.9844 74.7256 20.2422 74.6122 20.4691C74.4987 20.696 74.344 20.8868 74.1481 21.0415C73.9624 21.1859 73.7407 21.2993 73.4828 21.3818C73.2353 21.454 72.9723 21.4901 72.6939 21.4901H72.4154C72.3638 21.4901 72.3123 21.4901 72.2607 21.4901C72.2195 21.4901 72.173 21.485 72.1215 21.4746ZM79.743 19.6182C79.743 19.3398 79.7946 19.0974 79.8977 18.8911C80.0009 18.6849 80.1349 18.5095 80.3 18.3652C80.4753 18.2208 80.6815 18.1125 80.9188 18.0403C81.156 17.9681 81.4035 17.932 81.6613 17.932C82.1976 17.932 82.6359 18.0764 82.9763 18.3652C83.3269 18.6436 83.5023 19.0613 83.5023 19.6182C83.5023 20.1752 83.3321 20.6083 82.9917 20.9177C82.6514 21.2271 82.2182 21.3818 81.6923 21.3818C81.4241 21.3818 81.1714 21.3457 80.9342 21.2735C80.697 21.2013 80.4907 21.093 80.3154 20.9487C80.1401 20.8043 80.0009 20.6238 79.8977 20.4072C79.7946 20.1803 79.743 19.9173 79.743 19.6182ZM78.3507 19.5718C78.3507 20.0669 78.49 20.5258 78.7684 20.9487C79.0469 21.3612 79.4182 21.6603 79.8823 21.8459C79.2635 22.0625 78.789 22.4132 78.459 22.8979C78.129 23.3723 77.964 23.9344 77.964 24.5841C77.964 25.141 78.0568 25.6309 78.2424 26.0538C78.4384 26.4663 78.7014 26.8118 79.0314 27.0903C79.3717 27.3687 79.7688 27.575 80.2226 27.7091C80.6764 27.8432 81.1663 27.9102 81.6923 27.9102C82.1976 27.9102 82.672 27.838 83.1155 27.6936C83.559 27.5492 83.9406 27.3378 84.2603 27.0593C84.5903 26.7706 84.8482 26.4199 85.0338 26.0074C85.2297 25.5948 85.3277 25.1204 85.3277 24.5841C85.3277 23.9034 85.1679 23.331 84.8482 22.8669C84.5284 22.3925 84.0386 22.0522 83.3785 21.8459C83.8426 21.6397 84.2087 21.3354 84.4769 20.9332C84.7553 20.5207 84.8946 20.0669 84.8946 19.5718C84.8946 19.2212 84.8327 18.8808 84.7089 18.5508C84.5852 18.2105 84.3892 17.9114 84.1211 17.6535C83.8632 17.3854 83.5229 17.174 83.1 17.0193C82.6772 16.8542 82.1667 16.7717 81.5685 16.7717C81.1456 16.7717 80.7383 16.8336 80.3464 16.9574C79.9648 17.0811 79.6244 17.2616 79.3253 17.4988C79.0262 17.736 78.789 18.03 78.6137 18.3806C78.4384 18.721 78.3507 19.118 78.3507 19.5718ZM79.3563 24.646C79.3563 24.3263 79.413 24.0375 79.5264 23.7797C79.6502 23.5218 79.8152 23.3001 80.0215 23.1145C80.2381 22.9288 80.4856 22.7896 80.7641 22.6968C81.0528 22.5936 81.3571 22.5421 81.6768 22.5421C81.9862 22.5421 82.275 22.5988 82.5431 22.7122C82.8216 22.8154 83.0639 22.9598 83.2702 23.1454C83.4765 23.331 83.6363 23.5528 83.7498 23.8106C83.8735 24.0581 83.9354 24.3314 83.9354 24.6305C83.9354 24.9399 83.8787 25.2236 83.7652 25.4814C83.6621 25.7392 83.5074 25.9661 83.3011 26.1621C83.1052 26.3477 82.868 26.4973 82.5895 26.6107C82.3214 26.7138 82.0223 26.7654 81.6923 26.7654C81.0116 26.7654 80.4495 26.5798 80.006 26.2085C79.5729 25.8269 79.3563 25.3061 79.3563 24.646ZM87.9834 22.341C87.9834 22.0728 87.9834 21.7789 87.9834 21.4592C87.9937 21.1291 88.0195 20.8043 88.0607 20.4846C88.1123 20.1545 88.1793 19.8348 88.2618 19.5254C88.3547 19.216 88.4836 18.9479 88.6486 18.721C88.8239 18.4838 89.0405 18.293 89.2983 18.1486C89.5562 18.0042 89.8707 17.932 90.242 17.932C90.6133 17.932 90.9279 18.0042 91.1857 18.1486C91.4435 18.293 91.6549 18.4838 91.82 18.721C91.9953 18.9479 92.1242 19.216 92.2067 19.5254C92.2995 19.8348 92.3666 20.1545 92.4078 20.4846C92.4594 20.8043 92.4852 21.1291 92.4852 21.4592C92.4955 21.7789 92.5006 22.0728 92.5006 22.341C92.5006 22.7535 92.4852 23.2176 92.4542 23.7333C92.4336 24.2386 92.3511 24.7182 92.2067 25.172C92.0726 25.6155 91.8509 25.9919 91.5415 26.3013C91.2321 26.6107 90.7989 26.7654 90.242 26.7654C89.6851 26.7654 89.2519 26.6107 88.9425 26.3013C88.6331 25.9919 88.4062 25.6155 88.2618 25.172C88.1278 24.7182 88.0453 24.2386 88.0143 23.7333C87.9937 23.2176 87.9834 22.7535 87.9834 22.341ZM86.5911 22.3564C86.5911 22.7587 86.6014 23.1763 86.622 23.6095C86.6426 24.0427 86.6942 24.4655 86.7767 24.8781C86.8592 25.2906 86.9778 25.6825 87.1325 26.0538C87.2872 26.4148 87.4987 26.7345 87.7668 27.0129C88.0349 27.2914 88.3701 27.5131 88.7724 27.6781C89.1849 27.8328 89.6748 27.9102 90.242 27.9102C90.8196 27.9102 91.3094 27.8328 91.7117 27.6781C92.1139 27.5131 92.4491 27.2914 92.7172 27.0129C92.9854 26.7345 93.1968 26.4148 93.3515 26.0538C93.5062 25.6825 93.6248 25.2906 93.7073 24.8781C93.7898 24.4655 93.8414 24.0427 93.862 23.6095C93.8826 23.1763 93.8929 22.7587 93.8929 22.3564C93.8929 21.9542 93.8826 21.5365 93.862 21.1034C93.8414 20.6702 93.7898 20.2473 93.7073 19.8348C93.6248 19.4223 93.5062 19.0304 93.3515 18.6591C93.1968 18.2878 92.9854 17.9629 92.7172 17.6845C92.4491 17.406 92.1087 17.1843 91.6962 17.0193C91.294 16.8542 90.8092 16.7717 90.242 16.7717C89.6748 16.7717 89.1849 16.8542 88.7724 17.0193C88.3701 17.1843 88.0349 17.406 87.7668 17.6845C87.4987 17.9629 87.2872 18.2878 87.1325 18.6591C86.9778 19.0304 86.8592 19.4223 86.7767 19.8348C86.6942 20.2473 86.6426 20.6702 86.622 21.1034C86.6014 21.5365 86.5911 21.9542 86.5911 22.3564ZM95.8215 26.0228V27.74H97.5387V26.0228H95.8215ZM99.5238 20.6547H100.839C100.828 20.3247 100.859 19.9998 100.932 19.6801C101.014 19.3501 101.143 19.0562 101.318 18.7983C101.494 18.5405 101.715 18.3342 101.984 18.1795C102.262 18.0145 102.592 17.932 102.974 17.932C103.262 17.932 103.536 17.9784 103.794 18.0712C104.051 18.164 104.273 18.2981 104.459 18.4734C104.655 18.6488 104.809 18.8602 104.923 19.1077C105.036 19.3449 105.093 19.6131 105.093 19.9122C105.093 20.2938 105.031 20.6289 104.907 20.9177C104.794 21.2065 104.619 21.4746 104.381 21.7222C104.155 21.9697 103.866 22.2172 103.515 22.4647C103.164 22.7019 102.757 22.9649 102.293 23.2537C101.911 23.4806 101.545 23.723 101.195 23.9808C100.844 24.2386 100.529 24.5377 100.251 24.8781C99.9724 25.2184 99.7404 25.6206 99.5548 26.0847C99.3794 26.5385 99.266 27.0903 99.2144 27.74H106.377V26.5798H100.746C100.808 26.2394 100.937 25.9403 101.133 25.6825C101.339 25.4144 101.581 25.1668 101.86 24.9399C102.149 24.713 102.463 24.5016 102.803 24.3057C103.144 24.0994 103.484 23.8931 103.824 23.6869C104.165 23.4703 104.495 23.2434 104.815 23.0062C105.134 22.769 105.418 22.506 105.665 22.2172C105.913 21.9181 106.109 21.5829 106.253 21.2116C106.408 20.8404 106.485 20.4124 106.485 19.9276C106.485 19.412 106.393 18.9582 106.207 18.5663C106.032 18.1744 105.789 17.8495 105.48 17.5917C105.17 17.3235 104.804 17.1224 104.381 16.9883C103.969 16.8439 103.525 16.7717 103.051 16.7717C102.473 16.7717 101.958 16.8697 101.504 17.0657C101.05 17.2616 100.669 17.5349 100.359 17.8856C100.06 18.2259 99.8384 18.6333 99.694 19.1077C99.5496 19.5821 99.4929 20.0978 99.5238 20.6547ZM110.812 21.4746V22.5885C111.059 22.5575 111.322 22.5421 111.601 22.5421C111.931 22.5421 112.235 22.5885 112.513 22.6813C112.802 22.7638 113.05 22.8979 113.256 23.0835C113.462 23.2589 113.627 23.4806 113.751 23.7487C113.875 24.0066 113.937 24.3057 113.937 24.646C113.937 24.976 113.87 25.2751 113.736 25.5433C113.612 25.8011 113.442 26.0228 113.225 26.2085C113.009 26.3838 112.756 26.523 112.467 26.6262C112.178 26.719 111.874 26.7654 111.554 26.7654C110.801 26.7654 110.229 26.5437 109.837 26.1002C109.445 25.6464 109.239 25.0637 109.218 24.3521H107.903C107.893 24.9193 107.97 25.4247 108.135 25.8681C108.311 26.3116 108.558 26.6881 108.878 26.9975C109.198 27.2965 109.584 27.5234 110.038 27.6781C110.492 27.8328 110.997 27.9102 111.554 27.9102C112.07 27.9102 112.555 27.8432 113.009 27.7091C113.473 27.5647 113.875 27.3533 114.215 27.0748C114.556 26.7963 114.824 26.4508 115.02 26.0383C115.226 25.6155 115.329 25.1307 115.329 24.5841C115.329 23.9241 115.164 23.3517 114.834 22.8669C114.514 22.3822 114.019 22.0677 113.349 21.9233V21.8923C113.782 21.6964 114.143 21.4076 114.432 21.026C114.721 20.6444 114.865 20.2061 114.865 19.7111C114.865 19.2057 114.777 18.7674 114.602 18.3961C114.437 18.0248 114.205 17.7206 113.906 17.4834C113.607 17.2462 113.251 17.0708 112.838 16.9574C112.436 16.8336 111.998 16.7717 111.523 16.7717C110.977 16.7717 110.492 16.8594 110.069 17.0347C109.657 17.2101 109.311 17.4524 109.033 17.7618C108.754 18.0712 108.538 18.4425 108.383 18.8757C108.239 19.3088 108.156 19.7884 108.135 20.3144H109.45C109.45 19.9947 109.492 19.6904 109.574 19.4017C109.657 19.1129 109.78 18.8602 109.945 18.6436C110.121 18.427 110.337 18.2569 110.595 18.1331C110.863 17.999 111.173 17.932 111.523 17.932C112.08 17.932 112.544 18.0815 112.916 18.3806C113.287 18.6694 113.473 19.1077 113.473 19.6956C113.473 19.9844 113.416 20.2422 113.302 20.4691C113.189 20.696 113.034 20.8868 112.838 21.0415C112.653 21.1859 112.431 21.2993 112.173 21.3818C111.926 21.454 111.663 21.4901 111.384 21.4901H111.106C111.054 21.4901 111.003 21.4901 110.951 21.4901C110.91 21.4901 110.863 21.485 110.812 21.4746ZM121.28 24.0117H117.598L121.249 18.6436H121.28V24.0117ZM122.517 24.0117V16.7717H121.465L116.469 23.9034V25.172H121.28V27.74H122.517V25.172H124.003V24.0117H122.517Z" fill="white"/>
<path d="M28.2239 47.0835C33.8377 47.0835 38.3887 42.5325 38.3887 36.9185C38.3887 31.3045 33.8377 26.7535 28.2239 26.7535C22.61 26.7535 18.0591 31.3045 18.0591 36.9185C18.0591 42.5325 22.61 47.0835 28.2239 47.0835Z" fill="#6867BE"/>
<path fill-rule="evenodd" clip-rule="evenodd" d="M28.2242 45.7698C33.1125 45.7698 37.0753 41.8069 37.0753 36.9185C37.0753 32.0301 33.1125 28.0672 28.2242 28.0672C23.3358 28.0672 19.373 32.0301 19.373 36.9185C19.373 41.8069 23.3358 45.7698 28.2242 45.7698ZM28.2251 36.2736C27.0271 36.2736 25.914 35.2013 24.0871 33.2547C23.8481 33 23.8644 32.6031 24.1235 32.3683C24.3827 32.1334 24.7865 32.1494 25.0255 32.4041C26.5033 33.9787 27.5864 35.019 28.2251 35.019C28.8638 35.019 29.9469 33.9787 31.4247 32.4041C31.6637 32.1494 32.0675 32.1334 32.3267 32.3683C32.5858 32.6032 32.6021 33 32.3631 33.2547C30.5362 35.2013 29.4231 36.2736 28.2251 36.2736ZM31.4237 41.4328C31.5495 41.5669 31.6143 41.6349 31.7863 41.6348C32.3639 41.6815 32.7856 41.0422 32.3621 40.5822C30.5352 38.6356 29.4221 37.5633 28.2241 37.5633C27.0261 37.5633 25.913 38.6356 24.0861 40.5822C23.8471 40.8369 23.8634 41.2337 24.1225 41.4686C24.3817 41.7036 24.7855 41.6875 25.0245 41.4328C26.5023 39.8582 27.5854 38.8179 28.2241 38.8179C28.8628 38.8179 29.9459 39.8582 31.4237 41.4328Z" fill="#1C1A42"/>
<g filter="url(#filter0_f_33_42)">
<ellipse rx="7.51977" ry="3.1377" transform="matrix(0.888871 0.458158 -0.512037 0.858963 104.538 52.0795)" fill="url(#paint0_linear_33_42)"/>
</g>
<path d="M104.237 52.7551C104.237 52.7551 101.518 47.5199 98.3947 49.1335C95.2713 50.747 92.3594 50.7698 87.5876 45.8773C82.8158 40.9848 79.2584 50.718 74.0526 45.8773" stroke="url(#paint1_linear_33_42)" stroke-width="1.82001" stroke-linecap="round" stroke-linejoin="round"/>
<path d="M127.132 47.8568V48.6576H130.025V47.8568H127.132ZM135.227 44.8138V44.063H131.723L131.063 47.7467L131.793 47.7868C131.96 47.5866 132.15 47.4264 132.364 47.3063C132.584 47.1795 132.834 47.1161 133.115 47.1161C133.355 47.1161 133.572 47.1561 133.765 47.2362C133.965 47.3163 134.136 47.4297 134.276 47.5766C134.416 47.7167 134.523 47.8869 134.596 48.0871C134.676 48.2806 134.716 48.4942 134.716 48.7277C134.716 49.008 134.676 49.2549 134.596 49.4685C134.516 49.6753 134.406 49.8488 134.266 49.989C134.132 50.1291 133.972 50.2359 133.785 50.3093C133.605 50.376 133.415 50.4094 133.215 50.4094C133.001 50.4094 132.804 50.3794 132.624 50.3193C132.451 50.2526 132.297 50.1625 132.164 50.049C132.037 49.9289 131.933 49.7921 131.853 49.6386C131.78 49.4785 131.737 49.3083 131.723 49.1281H130.872C130.879 49.4484 130.942 49.7354 131.063 49.989C131.183 50.2426 131.346 50.4561 131.553 50.6296C131.76 50.7965 131.997 50.9266 132.264 51.02C132.537 51.1068 132.828 51.1501 133.135 51.1501C133.548 51.1501 133.909 51.0868 134.216 50.96C134.529 50.8265 134.79 50.6496 134.996 50.4294C135.203 50.2092 135.357 49.959 135.457 49.6787C135.564 49.3917 135.617 49.0981 135.617 48.7978C135.617 48.3907 135.557 48.037 135.437 47.7367C135.317 47.4297 135.153 47.1762 134.946 46.976C134.74 46.7691 134.496 46.6156 134.216 46.5155C133.935 46.4154 133.638 46.3653 133.325 46.3653C133.085 46.3653 132.841 46.4087 132.594 46.4955C132.354 46.5756 132.157 46.7024 132.003 46.8759L131.983 46.8558L132.364 44.8138H135.227ZM136.915 49.9289V51.04H138.026V49.9289H136.915ZM139.311 46.4554H140.161C140.155 46.2419 140.175 46.0317 140.222 45.8248C140.275 45.6113 140.358 45.4211 140.472 45.2542C140.585 45.0874 140.729 44.9539 140.902 44.8538C141.082 44.7471 141.296 44.6937 141.543 44.6937C141.73 44.6937 141.907 44.7237 142.073 44.7838C142.24 44.8438 142.384 44.9306 142.504 45.044C142.631 45.1575 142.731 45.2943 142.804 45.4544C142.878 45.6079 142.914 45.7814 142.914 45.975C142.914 46.2219 142.874 46.4388 142.794 46.6256C142.721 46.8125 142.607 46.986 142.454 47.1461C142.307 47.3063 142.12 47.4665 141.893 47.6266C141.666 47.7801 141.403 47.9503 141.102 48.1371C140.856 48.2839 140.619 48.4408 140.392 48.6076C140.165 48.7744 139.961 48.968 139.781 49.1882C139.601 49.4084 139.451 49.6687 139.331 49.969C139.217 50.2626 139.144 50.6196 139.11 51.04H143.745V50.2893H140.101C140.141 50.0691 140.225 49.8755 140.352 49.7087C140.485 49.5352 140.642 49.375 140.822 49.2282C141.009 49.0814 141.213 48.9446 141.433 48.8178C141.653 48.6843 141.873 48.5509 142.093 48.4174C142.314 48.2773 142.527 48.1305 142.734 47.977C142.941 47.8235 143.124 47.6533 143.285 47.4665C143.445 47.2729 143.572 47.056 143.665 46.8158C143.765 46.5756 143.815 46.2986 143.815 45.985C143.815 45.6513 143.755 45.3577 143.635 45.1041C143.522 44.8505 143.365 44.6403 143.165 44.4734C142.964 44.2999 142.727 44.1698 142.454 44.0831C142.187 43.9896 141.9 43.9429 141.593 43.9429C141.219 43.9429 140.886 44.0063 140.592 44.1331C140.298 44.2599 140.051 44.4367 139.851 44.6636C139.658 44.8839 139.514 45.1475 139.421 45.4544C139.327 45.7614 139.291 46.0951 139.311 46.4554ZM146.615 46.986V47.7067C146.775 47.6867 146.945 47.6767 147.125 47.6767C147.339 47.6767 147.536 47.7067 147.716 47.7668C147.903 47.8201 148.063 47.9069 148.196 48.027C148.33 48.1405 148.436 48.2839 148.517 48.4574C148.597 48.6243 148.637 48.8178 148.637 49.038C148.637 49.2516 148.593 49.4451 148.507 49.6186C148.426 49.7854 148.316 49.9289 148.176 50.049C148.036 50.1625 147.873 50.2526 147.686 50.3193C147.499 50.3794 147.302 50.4094 147.095 50.4094C146.608 50.4094 146.238 50.2659 145.984 49.979C145.73 49.6853 145.597 49.3083 145.584 48.8478H144.733C144.726 49.2149 144.776 49.5419 144.883 49.8288C144.996 50.1158 145.156 50.3594 145.363 50.5596C145.57 50.7531 145.82 50.8999 146.114 51C146.408 51.1001 146.735 51.1501 147.095 51.1501C147.429 51.1501 147.742 51.1068 148.036 51.02C148.336 50.9266 148.597 50.7898 148.817 50.6096C149.037 50.4294 149.211 50.2059 149.337 49.9389C149.471 49.6653 149.538 49.3517 149.538 48.998C149.538 48.5709 149.431 48.2005 149.217 47.8869C149.01 47.5732 148.69 47.3697 148.256 47.2763V47.2562C148.537 47.1294 148.77 46.9426 148.957 46.6957C149.144 46.4488 149.237 46.1651 149.237 45.8448C149.237 45.5178 149.181 45.2342 149.067 44.994C148.96 44.7537 148.81 44.5569 148.617 44.4034C148.423 44.2499 148.193 44.1364 147.926 44.063C147.666 43.983 147.382 43.9429 147.075 43.9429C146.721 43.9429 146.408 43.9996 146.134 44.1131C145.867 44.2265 145.644 44.3834 145.463 44.5836C145.283 44.7838 145.143 45.024 145.043 45.3043C144.95 45.5846 144.896 45.8949 144.883 46.2352H145.734C145.734 46.0283 145.76 45.8315 145.814 45.6446C145.867 45.4578 145.947 45.2943 146.054 45.1541C146.167 45.014 146.308 44.9039 146.474 44.8238C146.648 44.737 146.848 44.6937 147.075 44.6937C147.435 44.6937 147.736 44.7904 147.976 44.984C148.216 45.1708 148.336 45.4544 148.336 45.8348C148.336 46.0217 148.3 46.1885 148.226 46.3353C148.153 46.4821 148.053 46.6056 147.926 46.7057C147.806 46.7991 147.662 46.8725 147.495 46.9259C147.335 46.9726 147.165 46.996 146.985 46.996H146.805C146.771 46.996 146.738 46.996 146.705 46.996C146.678 46.996 146.648 46.9926 146.615 46.986ZM151.666 45.9549C151.666 45.8014 151.676 45.6413 151.696 45.4745C151.716 45.3009 151.756 45.1441 151.816 45.004C151.883 44.8572 151.973 44.737 152.087 44.6436C152.2 44.5435 152.35 44.4935 152.537 44.4935C152.731 44.4935 152.881 44.5435 152.988 44.6436C153.101 44.737 153.188 44.8572 153.248 45.004C153.308 45.1441 153.345 45.3009 153.358 45.4745C153.378 45.6413 153.388 45.7981 153.388 45.9449C153.388 46.0984 153.378 46.2619 153.358 46.4354C153.338 46.6089 153.295 46.7691 153.228 46.9159C153.168 47.056 153.081 47.1728 152.968 47.2663C152.854 47.3597 152.701 47.4064 152.507 47.4064C152.32 47.4064 152.17 47.3597 152.057 47.2663C151.95 47.1662 151.867 47.046 151.806 46.9059C151.746 46.7591 151.706 46.6023 151.686 46.4354C151.673 46.2619 151.666 46.1017 151.666 45.9549ZM150.916 45.975C150.916 46.2486 150.942 46.5055 150.996 46.7457C151.056 46.986 151.149 47.1962 151.276 47.3764C151.403 47.5565 151.57 47.7 151.776 47.8068C151.983 47.9069 152.237 47.9569 152.537 47.9569C152.831 47.9569 153.078 47.9002 153.278 47.7868C153.478 47.6733 153.642 47.5265 153.768 47.3463C153.902 47.1595 153.995 46.9459 154.049 46.7057C154.109 46.4588 154.139 46.2052 154.139 45.9449C154.139 45.6713 154.112 45.4144 154.059 45.1742C154.012 44.9272 153.925 44.7137 153.798 44.5335C153.678 44.3533 153.515 44.2098 153.308 44.1031C153.108 43.9963 152.851 43.9429 152.537 43.9429C152.23 43.9429 151.973 43.9996 151.766 44.1131C151.56 44.2199 151.393 44.3667 151.266 44.5535C151.139 44.7404 151.049 44.9573 150.996 45.2042C150.942 45.4444 150.916 45.7013 150.916 45.975ZM156.611 49.1582C156.611 49.0047 156.621 48.8445 156.641 48.6777C156.661 48.5042 156.701 48.3473 156.761 48.2072C156.828 48.0604 156.918 47.9403 157.032 47.8468C157.145 47.7467 157.295 47.6967 157.482 47.6967C157.676 47.6967 157.826 47.7467 157.933 47.8468C158.046 47.9403 158.133 48.0604 158.193 48.2072C158.253 48.3473 158.29 48.5042 158.303 48.6777C158.323 48.8445 158.333 49.0013 158.333 49.1481C158.333 49.3016 158.323 49.4651 158.303 49.6386C158.283 49.8121 158.24 49.9723 158.173 50.1191C158.113 50.2593 158.026 50.376 157.913 50.4695C157.799 50.5629 157.646 50.6096 157.452 50.6096C157.265 50.6096 157.115 50.5629 157.002 50.4695C156.895 50.3694 156.811 50.2492 156.751 50.1091C156.691 49.9623 156.651 49.8055 156.631 49.6386C156.618 49.4651 156.611 49.305 156.611 49.1582ZM155.861 49.1782C155.861 49.4518 155.887 49.7087 155.941 49.9489C156.001 50.1892 156.094 50.3994 156.221 50.5796C156.348 50.7531 156.515 50.8932 156.721 51C156.928 51.1001 157.182 51.1501 157.482 51.1501C157.776 51.1501 158.023 51.0968 158.223 50.99C158.423 50.8765 158.587 50.7297 158.713 50.5495C158.847 50.3627 158.94 50.1491 158.994 49.9089C159.054 49.662 159.084 49.4084 159.084 49.1481C159.084 48.8745 159.057 48.6176 159.004 48.3774C158.957 48.1305 158.87 47.9169 158.743 47.7367C158.623 47.5565 158.46 47.4131 158.253 47.3063C158.053 47.1995 157.796 47.1461 157.482 47.1461C157.175 47.1461 156.918 47.2029 156.711 47.3163C156.505 47.4231 156.338 47.5699 156.211 47.7567C156.084 47.9436 155.994 48.1605 155.941 48.4074C155.887 48.6476 155.861 48.9046 155.861 49.1782ZM157.262 43.8128L151.877 51.2503H152.737L158.113 43.8128H157.262Z" fill="#E3507A"/>
<path d="M117.485 45.7214L116.6 44.8982C116.274 44.5951 115.745 44.5951 115.419 44.8982C115.093 45.2013 115.093 45.6927 115.419 45.9957L116.305 46.8189L113.974 48.9863H119.816V43.5539L117.485 45.7214Z" fill="#E3507A"/>
<rect x="0.455002" y="0.455002" width="184.09" height="66.09" rx="8.64504" stroke="#7473D0" stroke-width="0.910004"/>
<defs>
<filter id="filter0_f_33_42" x="80.4846" y="30.5276" width="48.1069" height="43.1038" filterUnits="userSpaceOnUse" color-interpolation-filters="sRGB">
<feFlood flood-opacity="0" result="BackgroundImageFix"/>
<feBlend mode="normal" in="SourceGraphic" in2="BackgroundImageFix" result="shape"/>
<feGaussianBlur stdDeviation="8.58875" result="effect1_foregroundBlur_33_42"/>
</filter>
<linearGradient id="paint0_linear_33_42" x1="8.22155" y1="8.0477" x2="11.0326" y2="2.24089" gradientUnits="userSpaceOnUse">
<stop stop-color="#FF62B8" stop-opacity="0.01"/>
<stop offset="1" stop-color="#FE33D1"/>
</linearGradient>
<linearGradient id="paint1_linear_33_42" x1="85.5944" y1="42.2632" x2="91.0659" y2="57.4884" gradientUnits="userSpaceOnUse">
<stop stop-color="#A330FF" stop-opacity="0.01"/>
<stop offset="0.393247" stop-color="#BC3DCB"/>
<stop offset="1" stop-color="#E3507A"/>
</linearGradient>
</defs>
</svg>
